<svg xmlns="http://www.w3.org/2000/svg" width="40" height="40" viewBox="0 0 40 40">
  <g id="icons_like" data-name="icons/like" transform="translate(-1)">
    <rect id="bg" width="40" height="40" transform="translate(1 0)" fill="none"/>
    <path id="path" d="M23.573,7.864A9.121,9.121,0,0,1,30.364,5C36.336,5,41,9.827,41,16.7c0,4.091-2.045,7.527-5.727,11.209-.818.818-3.273,3.027-3.355,3.109-.327.327-.736.655-1.145,1.064-.491.409-1.064.9-1.555,1.309-1.145.982-2.373,1.882-3.6,2.782a13.987,13.987,0,0,0-1.145.9,4.847,4.847,0,0,0-.491.327,1.6,1.6,0,0,1-1.882,0,4.847,4.847,0,0,0-.491-.327c-.327-.245-.736-.573-1.145-.9-1.227-.9-2.455-1.882-3.6-2.782-.573-.491-1.064-.9-1.555-1.309-.409-.327-.736-.736-1.145-1.064-.164-.082-2.618-2.291-3.436-3.109C6.964,24.227,5,20.791,5,16.7,5,9.827,9.664,5,15.636,5a9.121,9.121,0,0,1,6.791,2.864A3.78,3.78,0,0,1,23,8.436a3.78,3.78,0,0,1,.573-.573Zm.082,25.773c1.145-.9,2.373-1.8,3.436-2.7a11.9,11.9,0,0,0,1.473-1.309,12.584,12.584,0,0,0,1.064-.982c.164-.164,2.618-2.373,3.355-3.109,3.109-3.109,4.745-5.809,4.745-8.836,0-5.073-3.273-8.427-7.364-8.427a6.445,6.445,0,0,0-4.5,1.882A7.476,7.476,0,0,0,24.8,11.464c-.164.245-.245.491-.327.573a1.657,1.657,0,0,1-3.027,0,6.35,6.35,0,0,0-.327-.573,8.261,8.261,0,0,0-1.064-1.309,6.109,6.109,0,0,0-4.418-1.882c-4.091,0-7.364,3.355-7.364,8.427,0,3.027,1.636,5.727,4.745,8.918.736.736,3.191,2.945,3.355,3.109a12.584,12.584,0,0,0,1.064.982c.491.409.982.818,1.473,1.309,1.064.9,2.291,1.8,3.436,2.7.245.164.409.327.655.491a2.206,2.206,0,0,1,.655-.573Z" transform="translate(-2 -1)" fill="#78849e"/>
  </g>
</svg>
