<svg xmlns="http://www.w3.org/2000/svg" width="40" height="40" viewBox="0 0 40 40">
  <g id="icons_comment" data-name="icons/comment" transform="translate(-1.008 -1)">
    <rect id="bg" width="40" height="40" transform="translate(1.008 1)" fill="none"/>
    <path id="path" d="M5.655,36.582a2.939,2.939,0,0,0,3.764,3.764l5.4-1.309A17.5,17.5,0,0,0,23,41,17.885,17.885,0,1,0,6.964,31.264L5.655,36.582Zm4.664-5.155a1.635,1.635,0,0,0-.164-1.227A14.732,14.732,0,1,1,15.8,35.845a1.587,1.587,0,0,0-1.227-.164L8.845,37.073l1.473-5.645ZM30.364,21.364a1.636,1.636,0,0,0,0-3.273H15.636a1.636,1.636,0,0,0,0,3.273Zm0,6.545a1.636,1.636,0,0,0,0-3.273H20.545a1.636,1.636,0,0,0,0,3.273Z" transform="translate(-1.992 -2)" fill="#78849e"/>
  </g>
</svg>
