<svg xmlns="http://www.w3.org/2000/svg" width="55.975" height="51.5" viewBox="0 0 55.975 51.5">
  <g id="comment" transform="translate(0.75 -1.715)">
    <path id="패스_3372" data-name="패스 3372" d="M9.908,25.281h11.8a.908.908,0,1,0,0-1.816H9.908a.908.908,0,0,0,0,1.816Z" transform="translate(-0.829 -1.934)" fill="#78849e" stroke="#78849e" stroke-width="1.5"/>
    <path id="패스_3373" data-name="패스 3373" d="M33.514,29.465H9.908a.908.908,0,0,0,0,1.816H33.514a.908.908,0,1,0,0-1.816Z" transform="translate(-0.829 -2.486)" fill="#78849e" stroke="#78849e" stroke-width="1.5"/>
    <path id="패스_3374" data-name="패스 3374" d="M33.514,35.465H9.908a.908.908,0,0,0,0,1.816H33.514a.908.908,0,1,0,0-1.816Z" transform="translate(-0.829 -3.039)" fill="#78849e" stroke="#78849e" stroke-width="1.5"/>
    <path id="패스_3375" data-name="패스 3375" d="M49.093,2.529l-31-.064a5.39,5.39,0,0,0-5.384,5.384V12.5l-7.327.015A5.39,5.39,0,0,0,0,17.9V37.095a5.389,5.389,0,0,0,5.384,5.383H10.9v9.079a.908.908,0,0,0,1.58.611l8.81-9.692,15.1-.062a5.39,5.39,0,0,0,5.384-5.383v-.1l4.776,5.253a.908.908,0,0,0,1.58-.611V32.492h.971a5.39,5.39,0,0,0,5.384-5.383V7.913A5.39,5.39,0,0,0,49.093,2.529Zm-9.145,34.5A3.572,3.572,0,0,1,36.377,40.6l-15.5.064a.908.908,0,0,0-.668.3l-7.5,8.25V41.569a.908.908,0,0,0-.908-.908H5.384a3.572,3.572,0,0,1-3.568-3.567V17.9a3.573,3.573,0,0,1,3.57-3.568l8.233-.017h0l22.76-.047a3.572,3.572,0,0,1,3.568,3.568v19.2Zm12.711-9.924a3.571,3.571,0,0,1-3.568,3.567H47.212a.908.908,0,0,0-.908.908v7.639l-4.54-4.994V17.836a5.39,5.39,0,0,0-5.386-5.384L14.527,12.5V7.848A3.572,3.572,0,0,1,18.093,4.28l31,.064h0A3.572,3.572,0,0,1,52.66,7.912v19.2Z" transform="translate(0 0)" fill="#78849e" stroke="#78849e" stroke-width="1.5"/>
  </g>
</svg>
