<svg xmlns="http://www.w3.org/2000/svg" width="40" height="36" viewBox="0 0 40 36">
  <g id="back-left-arrow-square-button-outline" transform="translate(-156.592 -175.41)">
    <g id="_x37__42_" transform="translate(156.592 175.41)">
      <g id="그룹_9671" data-name="그룹 9671" transform="translate(0 0)">
        <path id="패스_3395" data-name="패스 3395" d="M193.892,190.772H165.3l11.129-10.863a2.589,2.589,0,0,0,0-3.727,2.744,2.744,0,0,0-3.819,0l-15.277,14.911a4.176,4.176,0,0,0,0,4.631l15.277,14.911a2.744,2.744,0,0,0,3.819,0,2.591,2.591,0,0,0,0-3.727L165.3,196.044h28.587a2.637,2.637,0,1,0,0-5.272Z" transform="translate(-156.592 -175.41)"/>
      </g>
    </g>
  </g>
</svg>
