<svg xmlns="http://www.w3.org/2000/svg" width="40" height="40" viewBox="0 0 40 40">
  <g id="그룹_9881" data-name="그룹 9881" transform="translate(-320 -1330)">
    <rect id="사각형_17451" data-name="사각형 17451" width="40" height="40" transform="translate(320 1330)" fill="none"/>
    <path id="path" d="M18.574,23.405a5.045,5.045,0,0,1,.182,1.64,10.04,10.04,0,0,1-.182,1.64l9.658,7.2a6.33,6.33,0,1,1-2.187,4.738,10.04,10.04,0,0,1,.182-1.64l-9.658-7.2a6.171,6.171,0,0,1-4.191,1.64,6.378,6.378,0,1,1,0-12.756,6.171,6.171,0,0,1,4.191,1.64l9.658-7.2a12.45,12.45,0,0,1-.182-1.731,6.378,6.378,0,1,1,6.378,6.378,6.171,6.171,0,0,1-4.191-1.64l-9.658,7.289Zm13.85-9.294a2.733,2.733,0,1,0-2.733-2.733,2.685,2.685,0,0,0,2.733,2.733Zm0,27.335a2.733,2.733,0,1,0-2.733-2.733,2.685,2.685,0,0,0,2.733,2.733ZM12.378,27.779a2.733,2.733,0,1,0-2.733-2.733,2.685,2.685,0,0,0,2.733,2.733Z" transform="translate(318 1325)" fill="#78849e"/>
  </g>
</svg>
