<svg xmlns="http://www.w3.org/2000/svg" width="50" height="50" viewBox="0 0 50 50">
  <path id="home" d="M49.157,21.747l0,0-20.4-20.4a4.6,4.6,0,0,0-6.51,0L1.857,21.733l-.021.021A4.6,4.6,0,0,0,4.9,29.6c.047,0,.095.007.142.007h.813V44.612A5.394,5.394,0,0,0,11.243,50h7.98a1.465,1.465,0,0,0,1.465-1.465V36.767a2.461,2.461,0,0,1,2.458-2.458h4.707a2.461,2.461,0,0,1,2.458,2.458V48.534A1.465,1.465,0,0,0,31.777,50h7.98a5.394,5.394,0,0,0,5.388-5.387V29.6H45.9a4.6,4.6,0,0,0,3.258-7.856Zm-2.075,4.436a1.663,1.663,0,0,1-1.183.491H43.68a1.465,1.465,0,0,0-1.465,1.465V44.612a2.46,2.46,0,0,1-2.458,2.457H33.242v-10.3a5.394,5.394,0,0,0-5.388-5.388H23.147a5.394,5.394,0,0,0-5.388,5.388v10.3H11.243a2.461,2.461,0,0,1-2.458-2.457V28.138A1.465,1.465,0,0,0,7.32,26.673H5.139l-.069,0a1.671,1.671,0,0,1-1.153-2.855h0l20.4-20.395a1.673,1.673,0,0,1,2.366,0L47.076,23.81l.01.009a1.677,1.677,0,0,1,0,2.364Zm0,0" transform="translate(-0.5 0.001)" fill="#78849e"/>
</svg>
