<svg id="그룹_9599" data-name="그룹 9599" xmlns="http://www.w3.org/2000/svg" width="50" height="50" viewBox="0 0 50 50">
  <path id="패스_3376" data-name="패스 3376" d="M152.752,116.812l-7.308-4.23-7.258-4.179a2.9,2.9,0,0,0-2.218-.3,2.942,2.942,0,0,0-1.764,1.36,2.975,2.975,0,0,0-.3.7c-.05.151-.05.352-.1.554V128.04a2.972,2.972,0,0,0,.857,2.064,2.856,2.856,0,0,0,2.067.856,4.969,4.969,0,0,0,1.663-.554l7.157-4.129h.05l.05-.05,7.409-4.28a2.9,2.9,0,0,0,1.361-1.813,1.886,1.886,0,0,0,.05-.554A3.816,3.816,0,0,0,152.752,116.812Zm-1.008,2.971-7.308,4.23a.176.176,0,0,0-.1.05l-7.157,4.129a.963.963,0,0,1-.4.151.717.717,0,0,1-.3-.1.539.539,0,0,1-.1-.3v-17.17a.049.049,0,0,1,.05-.05.176.176,0,0,0,.05-.1c.05-.05.151-.1.2-.151h.252c.05.05.1.05.151.1l7.157,4.129a.156.156,0,0,0,.1.05h.05l7.308,4.23c.1.05.3.2.3.352A.578.578,0,0,1,151.744,119.782Z" transform="translate(-116.965 -94.405)" fill="#78839e"/>
  <path id="패스_3377" data-name="패스 3377" d="M42.892,7.351A24.963,24.963,0,0,0,7.559,7.3,25.131,25.131,0,0,0,.2,25.025,25,25,0,1,0,42.892,7.351ZM41.127,40.886a22.406,22.406,0,0,1-31.754,0,22.352,22.352,0,0,1,0-31.722A22.48,22.48,0,0,1,47.73,25.025,22.167,22.167,0,0,1,41.127,40.886Z" transform="translate(-0.2 0)" fill="#78839e"/>
</svg>
