<svg id="checkmark-verify-interface-symbol-button" xmlns="http://www.w3.org/2000/svg" width="30" height="30" viewBox="0 0 30 30">
  <g id="_x31__30_">
    <g id="그룹_9641" data-name="그룹 9641">
      <path id="패스_3389" data-name="패스 3389" d="M20.65,8.5a.938.938,0,0,0-1.281.343l-6,10.385L10.02,16.135a.938.938,0,1,0-1.368,1.282l4.286,3.953a.937.937,0,0,0,1.325.043c.114-.107,6.731-11.632,6.731-11.632A.94.94,0,0,0,20.65,8.5ZM15,0A15,15,0,1,0,30,15,15,15,0,0,0,15,0Zm0,28.125A13.125,13.125,0,1,1,28.125,15,13.125,13.125,0,0,1,15,28.125Z" fill="#78849e"/>
    </g>
  </g>
</svg>
