<svg id="close-circular-button-symbol" xmlns="http://www.w3.org/2000/svg" width="30" height="30" viewBox="0 0 30 30">
  <g id="_x31_0_41_">
    <g id="그룹_9642" data-name="그룹 9642">
      <path id="패스_3390" data-name="패스 3390" d="M20.36,9.64a.944.944,0,0,0-1.336,0L15,13.669,11.023,9.7A.937.937,0,1,0,9.7,11.022l3.972,3.972-4,4a.945.945,0,0,0,1.336,1.336l4-4L18.978,20.3A.937.937,0,1,0,20.3,18.977L16.331,15l4.028-4.028A.944.944,0,0,0,20.36,9.64ZM15,0A15,15,0,1,0,30,15,15,15,0,0,0,15,0Zm0,28.125A13.125,13.125,0,1,1,28.125,15,13.125,13.125,0,0,1,15,28.125Z" fill="#78849e"/>
    </g>
  </g>
</svg>
