<svg id="save-button-interface-symbol-of-outlined-diskette" xmlns="http://www.w3.org/2000/svg" width="26" height="26" viewBox="0 0 26 26">
  <g id="_x32__13_">
    <g id="그룹_9656" data-name="그룹 9656">
      <path id="패스_3391" data-name="패스 3391" d="M15.438,8.125a.813.813,0,0,0,.813-.812V4.063a.813.813,0,0,0-1.625,0v3.25A.813.813,0,0,0,15.438,8.125ZM22.75,0H3.25A3.25,3.25,0,0,0,0,3.25v19.5A3.25,3.25,0,0,0,3.25,26h19.5A3.25,3.25,0,0,0,26,22.75V3.25A3.25,3.25,0,0,0,22.75,0ZM6.5,1.625h13V8.938a.813.813,0,0,1-.812.813H7.313A.813.813,0,0,1,6.5,8.938ZM24.375,22.75a1.625,1.625,0,0,1-1.625,1.625H3.25A1.625,1.625,0,0,1,1.625,22.75V3.25A1.625,1.625,0,0,1,3.25,1.625H4.875V9.75A1.625,1.625,0,0,0,6.5,11.375h13A1.625,1.625,0,0,0,21.125,9.75V1.625H22.75A1.625,1.625,0,0,1,24.375,3.25Z" fill="#78849e"/>
    </g>
  </g>
</svg>
