<svg xmlns="http://www.w3.org/2000/svg" width="50" height="36.697" viewBox="0 0 50 36.697">
  <g id="streaming_1_" data-name="streaming (1)" transform="translate(-79.566 -0.001)">
    <path id="패스_3378" data-name="패스 3378" d="M216,93.807a5.067,5.067,0,1,1,0-7.159A5.08,5.08,0,0,1,216,93.807Zm0,0" transform="translate(-107.841 -71.877)" fill="#78849e"/>
    <path id="패스_3379" data-name="패스 3379" d="M294.215,68a2.411,2.411,0,0,1-1.7-4.117,10.074,10.074,0,0,0,0-14.266,2.411,2.411,0,0,1,3.406-3.413,14.9,14.9,0,0,1,0,21.092,2.4,2.4,0,0,1-1.7.7Zm0,0" transform="translate(-179.126 -38.4)" fill="#78849e"/>
    <path id="패스_3380" data-name="패스 3380" d="M329.168,36.7a2.411,2.411,0,0,1-1.7-4.117,20.1,20.1,0,0,0,0-28.462A2.411,2.411,0,1,1,330.871.708a24.92,24.92,0,0,1,0,35.288,2.4,2.4,0,0,1-1.7.7Zm0,0" transform="translate(-208.626 -0.002)" fill="#78849e"/>
    <path id="패스_3381" data-name="패스 3381" d="M139.482,68a2.4,2.4,0,0,1-1.7-.7,14.9,14.9,0,0,1,0-21.092,2.411,2.411,0,1,1,3.406,3.413,10.074,10.074,0,0,0,0,14.266,2.411,2.411,0,0,1-1.7,4.117Zm0,0" transform="translate(-45.437 -38.399)" fill="#78849e"/>
    <path id="패스_3382" data-name="패스 3382" d="M88.592,36.7a2.4,2.4,0,0,1-1.7-.7,24.92,24.92,0,0,1,0-35.288,2.411,2.411,0,0,1,3.406,3.413,20.1,20.1,0,0,0,0,28.463,2.411,2.411,0,0,1-1.7,4.117Zm0,0" fill="#78849e"/>
  </g>
</svg>
