<svg id="user" xmlns="http://www.w3.org/2000/svg" width="50" height="50" viewBox="0 0 50 50">
  <g id="그룹_8515" data-name="그룹 8515" transform="translate(10 0)">
    <g id="그룹_8514" data-name="그룹 8514">
      <path id="패스_3106" data-name="패스 3106" d="M136,0a14.96,14.96,0,0,0-15,14.885,15,15,0,0,0,30,0A14.96,14.96,0,0,0,136,0Zm0,26.462a11.577,11.577,0,1,1,11.667-11.577A11.635,11.635,0,0,1,136,26.462Z" transform="translate(-121)" fill="#78849e"/>
    </g>
  </g>
  <g id="그룹_8517" data-name="그룹 8517" transform="translate(0 26.626)">
    <g id="그룹_8516" data-name="그룹 8516">
      <path id="패스_3107" data-name="패스 3107" d="M74.663,306.416A21.465,21.465,0,0,0,59.333,300H52.667A21.772,21.772,0,0,0,31,321.721a1.66,1.66,0,0,0,1.667,1.654H79.333A1.66,1.66,0,0,0,81,321.721,21.607,21.607,0,0,0,74.663,306.416Zm-40.256,13.65a18.389,18.389,0,0,1,18.26-16.759h6.667a18.389,18.389,0,0,1,18.26,16.759Z" transform="translate(-31 -300)" fill="#78849e"/>
    </g>
  </g>
</svg>
